<svg id="Layer_1" data-name="Layer 1" xmlns="http://www.w3.org/2000/svg" xmlns:xlink="http://www.w3.org/1999/xlink" viewBox="0 0 159.91 53.15"><defs><linearGradient id="linear-gradient" x1="-577.92" y1="-37.38" x2="-576.24" y2="-36.93" gradientTransform="matrix(35.32, 0, 0, -32.38, 20421.65, -1179.64)" gradientUnits="userSpaceOnUse"><stop offset="0" stop-color="#00bdff"/><stop offset="1" stop-color="#007aef"/></linearGradient><clipPath id="clip-path"><path d="M35.41,9.29A4.11,4.11,0,0,1,39,11.35l7.55,13.14a4.12,4.12,0,0,1,0,4.08L39,41.71a4.1,4.1,0,0,1-3.55,2H20.35a4.1,4.1,0,0,1-3.55-2L9.26,28.57a4.07,4.07,0,0,1,0-4.08L16.8,11.35a4.11,4.11,0,0,1,3.55-2.06Z" style="fill:none"/></clipPath><linearGradient id="linear-gradient-2" x1="-564.95" y1="-46.43" x2="-564.97" y2="-44.61" gradientTransform="matrix(23.64, 0, 0, -21.17, 13385.07, -917.82)" gradientUnits="userSpaceOnUse"><stop offset="0" stop-color="#1622ff"/><stop offset="1" stop-color="#07dafb"/></linearGradient></defs><path d="M63.57,22.25V18.06H58.79v4.19H57.5V12.92h1.29v4h4.78v-4h1.28v9.33Z" style="fill:#00638e"/><path d="M67.37,12.74a.8.8,0,1,1-.8.79A.77.77,0,0,1,67.37,12.74Zm-.63,9.51V15.52H68v6.73Z" style="fill:#00638e"/><path d="M73.87,15.52h1.27l-2.42,6.73H71.4L69,15.52h1.27L72.06,21Z" style="fill:#00638e"/><path d="M81.23,18.1a4.32,4.32,0,0,1-.14,1.13H76.85a2,2,0,0,0,2.2,2.16A5.12,5.12,0,0,0,81,21l.17.94a5.63,5.63,0,0,1-2.27.45,3.15,3.15,0,0,1-3.31-3.48c0-2,1.16-3.53,3.08-3.53A2.47,2.47,0,0,1,81.23,18.1Zm-4.38.17H80c.12-1.07-.28-1.95-1.41-1.95A1.85,1.85,0,0,0,76.85,18.27Z" style="fill:#00638e"/><path d="M93.34,12.92h1.17l.67,9.33H94L93.5,15l-2.69,5.59H89.49L86.8,15l-.45,7.27H85.12l.67-9.33H87l3.19,6.59Z" style="fill:#00638e"/><path d="M100.62,21.41a3,3,0,0,1-2.24,1,1.8,1.8,0,0,1-1.92-1.87c0-1.23.94-1.85,2.4-1.94.6,0,1.19-.06,1.73-.06v-.29c0-1.14-.44-1.82-1.57-1.82a3.68,3.68,0,0,0-1.77.47L97,16a4.11,4.11,0,0,1,2.3-.58,2.5,2.5,0,0,1,2.6,2.82v4.05h-1.23Zm0-.82V19.35c-.56,0-1,.07-1.51.12-.8.07-1.4.34-1.4,1.05s.39.94,1.07.94A2.52,2.52,0,0,0,100.59,20.59Z" style="fill:#00638e"/><path d="M102.8,15.52H104V13.8h1.26v1.72h2.21v1h-2.21V20c0,.8.18,1.38,1,1.38a2.86,2.86,0,0,0,1.07-.18l.11.95a4.31,4.31,0,0,1-1.44.26c-1.45,0-2-1-2-2.37V16.54H102.8Z" style="fill:#00638e"/><path d="M114.25,15.52v6.73H113v-1a2.62,2.62,0,0,1-2.14,1.12c-1.68,0-2.33-1.53-2.33-3.32V15.52h1.26V19c0,1.38.32,2.34,1.49,2.34a2.19,2.19,0,0,0,1.66-.91V15.52Z" style="fill:#00638e"/><path d="M119.84,16.56h-.32a2.34,2.34,0,0,0-2.2,1.19v4.5h-1.26V15.52h1.21v1.29a2,2,0,0,1,2.06-1.37,1.79,1.79,0,0,1,.51.07Z" style="fill:#00638e"/><path d="M121.47,12.74a.8.8,0,0,1,0,1.59.8.8,0,1,1,0-1.59Zm-.63,9.51V15.52h1.26v6.73Z" style="fill:#00638e"/><path d="M123.15,15.52h1.2V13.8h1.26v1.72h2.21v1h-2.21V20c0,.8.18,1.38,1,1.38a2.8,2.8,0,0,0,1.07-.18l.11.95a4.21,4.21,0,0,1-1.44.26c-1.44,0-2-1-2-2.37V16.54h-1.2Z" style="fill:#00638e"/><path d="M129.67,25.13l1-2.81-2.47-6.8h1.3L131.27,21,133,15.52h1.31l-3.41,9.61Z" style="fill:#00638e"/><path d="M65.46,38.25H64.14L63.29,36H58.93l-.84,2.26H56.77l3.71-9.33h1.27ZM59.32,35h3.59l-1.8-4.86Z" style="fill:#00638e"/><path d="M68.25,38.39A5.61,5.61,0,0,1,66.18,38l.21-1a4.68,4.68,0,0,0,1.88.4c.8,0,1.43-.28,1.43-.91s-.63-.88-1.35-1.18c-.95-.36-2.07-.89-2.07-2.07s1.16-1.85,2.39-1.85a4.34,4.34,0,0,1,2,.45l-.21,1a4,4,0,0,0-1.74-.4c-.66,0-1.16.18-1.16.78s.73.77,1.26,1,2.16.75,2.16,2.13S69.78,38.39,68.25,38.39Z" style="fill:#00638e"/><path d="M73.76,38.39A5.71,5.71,0,0,1,71.68,38l.21-1a4.68,4.68,0,0,0,1.88.4c.8,0,1.43-.28,1.43-.91s-.63-.88-1.35-1.18c-.95-.36-2.07-.89-2.07-2.07s1.16-1.85,2.4-1.85a4.3,4.3,0,0,1,1.94.45l-.21,1a4,4,0,0,0-1.73-.4c-.66,0-1.17.18-1.17.78s.73.77,1.26,1,2.16.75,2.16,2.13S75.28,38.39,73.76,38.39Z" style="fill:#00638e"/><path d="M82.83,34.1a4.32,4.32,0,0,1-.14,1.13H78.44a2,2,0,0,0,2.2,2.16A5.08,5.08,0,0,0,82.56,37l.17.94a5.6,5.6,0,0,1-2.27.45c-2.24,0-3.3-1.54-3.3-3.48s1.16-3.53,3.08-3.53A2.47,2.47,0,0,1,82.83,34.1Zm-4.39.17h3.17c.11-1.07-.28-2-1.41-2A1.85,1.85,0,0,0,78.44,34.27Z" style="fill:#00638e"/><path d="M85.78,38.39A5.61,5.61,0,0,1,83.71,38l.21-1a4.64,4.64,0,0,0,1.88.4c.79,0,1.42-.28,1.42-.91s-.63-.88-1.34-1.18c-.95-.36-2.07-.89-2.07-2.07S85,31.38,86.2,31.38a4.34,4.34,0,0,1,2,.45l-.21,1a4.07,4.07,0,0,0-1.74-.4c-.66,0-1.16.18-1.16.78s.73.77,1.26,1,2.16.75,2.16,2.13S87.31,38.39,85.78,38.39Z" style="fill:#00638e"/><path d="M95.23,33.47a5.4,5.4,0,0,1,.13,1.23v3.55H94.1V34.74c0-1.37-.34-2.33-1.46-2.33a2.15,2.15,0,0,0-1.66.91v4.93H89.72V31.52h1.2v1a2.49,2.49,0,0,1,2.14-1.12A2,2,0,0,1,95,32.7a2.7,2.7,0,0,1,2.41-1.32c1.68,0,2.35,1.53,2.35,3.32v3.55H98.48V34.74c0-1.37-.33-2.33-1.45-2.33A2.38,2.38,0,0,0,95.23,33.47Z" style="fill:#00638e"/><path d="M106.67,34.1a4.32,4.32,0,0,1-.14,1.13h-4.24a2,2,0,0,0,2.2,2.16A5.07,5.07,0,0,0,106.4,37l.17.94a5.6,5.6,0,0,1-2.27.45c-2.24,0-3.3-1.54-3.3-3.48s1.16-3.53,3.08-3.53A2.47,2.47,0,0,1,106.67,34.1Zm-4.38.17h3.16c.11-1.07-.28-2-1.41-2A1.84,1.84,0,0,0,102.29,34.27Z" style="fill:#00638e"/><path d="M108,38.25V31.52h1.21v1a2.49,2.49,0,0,1,2.14-1.12c1.68,0,2.38,1.53,2.38,3.32v3.55h-1.26V34.74c0-1.37-.42-2.33-1.54-2.33a2.15,2.15,0,0,0-1.66.91v4.93Z" style="fill:#00638e"/><path d="M114.58,31.52h1.2V29.8H117v1.72h2.22v1H117V36c0,.8.19,1.38,1,1.38a2.78,2.78,0,0,0,1.06-.18l.11,1a4.21,4.21,0,0,1-1.44.26c-1.44,0-2-1-2-2.37V32.54h-1.2Z" style="fill:#00638e"/><path d="M128.72,28.92v1H126v8.28h-1.29V30h-2.75v-1Z" style="fill:#00638e"/><path d="M131.52,38.39a3.25,3.25,0,0,1-3.26-3.51,3.27,3.27,0,1,1,6.52,0A3.25,3.25,0,0,1,131.52,38.39Zm0-6c-1.34,0-2,1.12-2,2.52s.66,2.53,2,2.53,2-1.13,2-2.53S132.86,32.36,131.52,32.36Z" style="fill:#00638e"/><path d="M138.88,38.39a3.25,3.25,0,0,1-3.26-3.51,3.27,3.27,0,1,1,6.53,0A3.25,3.25,0,0,1,138.88,38.39Zm0-6c-1.34,0-2,1.12-2,2.52s.66,2.53,2,2.53,2-1.13,2-2.53S140.23,32.36,138.88,32.36Z" style="fill:#00638e"/><path d="M144.66,36.51c0,.55.2.84.72.84a2.72,2.72,0,0,0,.63-.08l.05.93a3.21,3.21,0,0,1-1,.16c-1.17,0-1.64-.79-1.64-1.79V28.36h1.26Z" style="fill:#00638e"/><g id="mat"><rect id="Rectangle_1403" data-name="Rectangle 1403" x="8.71" y="7.36" width="38.34" height="38.34" style="fill:#3db48b;fill-opacity:0"/><g id="mat-2"><g id="MAT-3"><path id="Polygon_172" data-name="Polygon 172" d="M34,9.29a6.48,6.48,0,0,1,5.63,3.26L45.82,23.3a6.48,6.48,0,0,1,0,6.46L39.65,40.52A6.49,6.49,0,0,1,34,43.77H21.74a6.51,6.51,0,0,1-5.63-3.25L9.94,29.76a6.48,6.48,0,0,1,0-6.46l6.17-10.75a6.49,6.49,0,0,1,5.63-3.26Z" style="fill:url(#linear-gradient)"/><g style="clip-path:url(#clip-path)"><g id="Mask_Group_13" data-name="Mask Group 13"><path id="Polygon_175" data-name="Polygon 175" d="M24.06,20.23a4.43,4.43,0,0,1,6.07-1.57,4.48,4.48,0,0,1,1.58,1.57L42.21,38.1a4.45,4.45,0,0,1-3.83,6.69h-21a4.44,4.44,0,0,1-3.83-6.69Z" style="fill:#0b72f1;opacity:0.15000000596046448;isolation:isolate"/><path id="Polygon_173" data-name="Polygon 173" d="M25.22,24.11A3.07,3.07,0,0,1,29.42,23a3,3,0,0,1,1.12,1.11l9.51,16.4a3.08,3.08,0,0,1-1.11,4.2,3.12,3.12,0,0,1-1.55.41h-19a3.06,3.06,0,0,1-3.08-3.06,3,3,0,0,1,.42-1.55Z" style="fill:url(#linear-gradient-2)"/></g></g></g></g></g><path id="Icon_metro-registered" data-name="Icon metro-registered" d="M148.67,25.58a.32.32,0,0,0-.15-.3.63.63,0,0,0-.3-.05h-.31V26h.41a.41.41,0,0,0,.26-.09.38.38,0,0,0,.09-.27Zm.13.74.53.94a.11.11,0,0,1,0,.08.07.07,0,0,1-.07,0h-.39a.08.08,0,0,1-.07,0l-.5-.93h-.39v.89a.09.09,0,0,1-.08.08h-.35a.08.08,0,0,1-.08-.07h0V24.85a.08.08,0,0,1,.08-.08h.75a1.61,1.61,0,0,1,.49.06.67.67,0,0,1,.34.28.78.78,0,0,1,.12.45.8.8,0,0,1-.1.43.74.74,0,0,1-.3.28l0,0Zm-.5-2.12a1.83,1.83,0,0,0-.73.15,1.88,1.88,0,0,0-1,1,1.85,1.85,0,0,0,0,1.46,1.83,1.83,0,0,0,1,1,1.85,1.85,0,0,0,1.46,0,1.83,1.83,0,0,0,1-1,1.85,1.85,0,0,0,0-1.46,1.81,1.81,0,0,0-1-1,1.83,1.83,0,0,0-.73-.15Zm2.28,1.87a2.3,2.3,0,0,1-1.39,2.11,2.29,2.29,0,0,1-1.78,0A2.23,2.23,0,0,1,146.2,27a2.27,2.27,0,0,1,0-1.77A2.23,2.23,0,0,1,147.41,24a2.29,2.29,0,0,1,1.78,0,2.26,2.26,0,0,1,1.21,1.22A2.23,2.23,0,0,1,150.58,26.07Z" style="fill:#00638e"/></svg>