<svg xmlns="http://www.w3.org/2000/svg" width="6.069" height="4.748" viewBox="0 0 6.069 4.748">
  <g id="check" transform="translate(-9.382 -10.875)">
    <path id="Subtraction_19" data-name="Subtraction 19" d="M-7101.25-778.183h-.009a.39.39,0,0,1-.278-.116l-2.091-2.093-.007-.005a.394.394,0,0,1-.116-.387.394.394,0,0,1,.285-.285.445.445,0,0,1,.095-.012.4.4,0,0,1,.292.128l1.822,1.82,2.885-3.675.032-.03a.381.381,0,0,1,.251-.093.4.4,0,0,1,.276.112.391.391,0,0,1,.118.278.391.391,0,0,1-.112.28l-3.167,3.956A.4.4,0,0,1-7101.25-778.183Z" transform="translate(7113.145 793.806)" fill="#fff"/>
  </g>
</svg>
