<svg xmlns="http://www.w3.org/2000/svg" width="7.348" height="5.808" viewBox="0 0 7.348 5.808">
  <g id="upload" transform="translate(0 -3.044)">
    <path id="Path_11676" data-name="Path 11676" d="M.23,6.1a.23.23,0,0,1,.23.23V7.934a.459.459,0,0,0,.459.459H6.429a.459.459,0,0,0,.459-.459V6.327a.23.23,0,0,1,.459,0V7.934a.918.918,0,0,1-.918.918H.918A.918.918,0,0,1,0,7.934V6.327A.23.23,0,0,1,.23,6.1ZM2.3,4.652a.23.23,0,0,0,.325,0L3.674,3.6,4.727,4.652a.23.23,0,1,0,.325-.325L3.836,3.112a.23.23,0,0,0-.325,0L2.3,4.327a.23.23,0,0,0,0,.325Z" transform="translate(0 0)" fill="#a7b3c2"/>
    <path id="Path_11677" data-name="Path 11677" d="M17.1,4.5a.23.23,0,0,1,.23.23V8.4a.23.23,0,0,1-.459,0V4.73A.23.23,0,0,1,17.1,4.5Z" transform="translate(-13.431 -1.158)" fill="#a7b3c2"/>
  </g>
</svg>
